PathFileType	4	(X/Y/Z)	C:/Users/opensim2020/Desktop/walking_exp_matlab/subject01_walking13_straight_02.trc	
DataRate	CameraRate	NumFrames	NumMarkers	Units	OrigDataRate	OrigDataStartFrame	OrigNumFrames	
100.00	100.00	8	42	mm	100.00	1110	172	
Frame#	Time	LFHD			RFHD			LBHD			RBHD			C7			T10			CLAV			STRN			RBAK			LSHO			LUPA			LELB			LFRM			LWRA			LWRB			LFIN			RSHO			RUPA			RELB			RFRM			RWRA			RWRB			RFIN			LASI			RASI			LPSI			RPSI			LTHI			LKNE			LTIB			LANK			LHEE			LTOE			RTHI			RKNE			RTIB			RANK			RHEE			RTOE			*39			*40			*41			
		X1	Y1	Z1	X2	Y2	Z2	X3	Y3	Z3	X4	Y4	Z4	X5	Y5	Z5	X6	Y6	Z6	X7	Y7	Z7	X8	Y8	Z8	X9	Y9	Z9	X10	Y10	Z10	X11	Y11	Z11	X12	Y12	Z12	X13	Y13	Z13	X14	Y14	Z14	X15	Y15	Z15	X16	Y16	Z16	X17	Y17	Z17	X18	Y18	Z18	X19	Y19	Z19	X20	Y20	Z20	X21	Y21	Z21	X22	Y22	Z22	X23	Y23	Z23	X24	Y24	Z24	X25	Y25	Z25	X26	Y26	Z26	X27	Y27	Z27	X28	Y28	Z28	X29	Y29	Z29	X30	Y30	Z30	X31	Y31	Z31	X32	Y32	Z32	X33	Y33	Z33	X34	Y34	Z34	X35	Y35	Z35	X36	Y36	Z36	X37	Y37	Z37	X38	Y38	Z38	X39	Y39	Z39	X40	Y40	Z40	X41	Y41	Z41	X42	Y42	Z42	

22	0.210	1550.97168	985.14178	1663.67676	1440.47327	966.32416	1676.43140	1533.51367	1100.65332	1621.94226	1416.17505	1084.76050	1634.52625	1481.16479	1143.73108	1436.18689	1457.78162	1195.85095	1146.34155	1474.64600	1004.74139	1361.24329	1472.56543	969.82648	1204.65833	1396.97241	1209.92480	1247.68298	1636.69739	1063.57886	1387.68188	1726.26172	1096.82605	1210.60266	1745.31750	1092.88245	1057.30151	1768.87366	998.78046	985.42749	1751.19324	867.11475	940.08533	1772.18506	909.36517	903.65845	1791.79724	834.86902	876.16876	1325.83752	1069.34497	1400.07935	1217.18652	1163.32996	1220.49426	1199.47791	1182.09338	1097.57361	1164.13635	1158.76953	978.41669	1182.41699	1079.68518	862.29950	1141.41101	1122.81995	862.81097	1136.77124	1077.76929	791.49432	1565.33960	1032.99426	935.32678	1348.74548	1022.11993	942.04504	1499.05334	1215.44714	948.05994	1353.90454	1204.23767	945.58673	1616.30005	1094.70142	605.25397	1601.90332	1119.46619	471.13690	1606.47864	1193.84607	295.49948	1556.93945	1244.95093	82.47343	1499.99646	1287.78186	55.21233	1579.40112	1102.58484	38.28894	1285.89111	950.42633	630.85498	1312.49902	892.62836	482.63849	1311.83838	983.52106	329.38522	1361.04443	1062.83130	140.39792	1415.74463	1115.58813	115.79142	1356.52490	944.46277	62.37372	1464.62854	978.02185	1708.74854	-3101.95166	1973.18835	1023.42468	-3140.68311	2012.57861	1022.01038 
23	0.220	1550.47388	972.78162	1663.14148	1439.89612	954.00134	1675.46863	1533.29810	1088.36218	1621.56482	1416.05176	1072.61084	1633.75269	1481.59094	1131.74182	1435.58618	1458.65979	1184.30078	1145.83618	1474.88062	992.91986	1360.43970	1473.41833	958.12573	1203.81055	1398.03931	1198.04846	1246.66589	1637.10242	1051.37854	1387.64404	1727.36450	1083.28699	1210.78198	1747.87402	1077.86353	1057.92419	1771.19678	980.88580	989.79327	1753.12708	847.61957	950.01044	1774.21338	888.06458	911.74841	1793.73901	812.39197	887.70917	1326.25745	1057.93518	1399.05664	1218.75134	1153.37048	1219.47595	1201.08398	1173.03320	1097.10413	1164.52380	1152.15405	977.97668	1180.58704	1074.87500	860.42926	1140.43054	1119.17676	861.91272	1134.68420	1075.15747	789.87109	1566.42383	1022.14032	934.10297	1349.88635	1010.34918	941.54449	1499.64148	1204.29333	947.46851	1354.80469	1192.84094	945.06134	1616.32581	1088.55200	604.85846	1602.23425	1115.23279	470.83292	1606.09424	1190.96655	295.89221	1556.48132	1244.29016	83.41949	1499.40491	1287.33826	56.68058	1579.46033	1102.56079	38.33564	1286.54211	937.18750	631.27118	1313.21936	878.93420	483.04822	1311.82117	960.78009	324.70923	1360.08704	1027.31787	130.20612	1415.24219	1077.53772	102.20609	1354.49304	903.42639	61.24096	1463.99951	965.61896	1707.97156	-3101.84570	1973.09717	1023.47559	-3140.61377	2012.61707	1022.08258 
24	0.230	1550.00488	960.44031	1662.58545	1439.31335	941.71448	1674.50342	1532.95166	1076.07922	1621.09338	1415.66663	1060.44421	1632.97729	1481.98779	1119.83167	1435.02441	1459.25232	1172.62842	1145.23816	1475.19348	980.99585	1359.68359	1474.27856	946.40045	1202.96960	1398.97290	1186.12439	1245.61829	1637.34167	1039.13098	1387.45581	1728.55005	1069.69116	1211.03430	1750.31348	1062.81750	1058.49487	1773.26514	963.27515	994.07239	1754.67578	828.65918	959.72845	1775.95471	867.32605	919.83215	1795.14465	790.39020	898.90765	1326.41516	1046.35352	1397.77490	1220.26184	1143.46704	1218.55078	1202.36328	1163.94214	1096.58777	1164.88574	1145.26660	977.53302	1178.86951	1069.83130	858.59546	1139.59265	1114.50745	860.83575	1132.46533	1072.34668	788.15588	1567.48413	1011.36121	932.96918	1351.02502	998.24023	941.01520	1499.98547	1193.10034	946.87439	1355.21777	1180.54773	944.36694	1616.18604	1081.93860	604.44733	1602.48071	1110.66833	470.64041	1605.76379	1188.32031	296.55923	1555.87219	1243.73511	84.43002	1498.63086	1286.70667	58.32719	1579.45801	1102.46790	38.30401	1287.10791	924.54492	630.93219	1314.24951	865.96161	482.93906	1311.12854	938.29370	319.96716	1358.61462	991.11945	120.80817	1413.50024	1039.41528	89.15134	1352.79016	862.53101	60.48087	1463.35461	953.30719	1707.10486	-3101.87207	1973.25098	1023.44617	-3140.60425	2012.54468	1022.16327 
25	0.240	1549.29797	948.08307	1661.95300	1438.66895	929.38165	1673.62744	1532.56189	1063.85559	1620.62793	1415.08240	1048.18140	1632.09497	1482.11389	1107.81030	1434.38989	1459.60815	1160.86047	1144.57935	1475.46265	969.02191	1358.86658	1475.15515	934.43066	1202.14270	1399.72290	1174.18555	1244.55103	1637.47693	1026.86646	1387.24304	1729.59326	1055.95251	1211.21326	1752.69568	1047.76294	1059.06482	1775.12244	945.84229	998.23407	1755.96240	810.24298	969.35492	1777.51477	847.14984	927.90570	1796.48535	769.25616	910.37689	1326.40527	1034.72815	1396.49902	1221.59485	1133.41467	1217.48779	1203.51929	1154.72461	1095.98035	1165.21741	1138.20215	977.00439	1176.94763	1064.72375	856.92169	1138.95984	1109.91431	860.00085	1130.47083	1069.11450	786.74689	1568.76611	1000.53528	931.95740	1351.99048	985.81628	940.31531	1500.16943	1181.80737	946.32837	1355.71704	1168.51355	943.64484	1616.06750	1074.71289	603.87134	1602.68481	1106.02332	470.58487	1605.42944	1185.76538	297.36008	1555.23779	1243.04321	85.89508	1497.76794	1285.99304	60.26628	1579.37842	1102.43420	38.24081	1287.77905	912.81903	630.20276	1315.01843	854.00763	482.35641	1310.01428	916.10999	315.48923	1357.01819	953.79993	112.56146	1411.21423	1000.62000	77.35303	1351.02454	822.09753	61.27767	1462.51917	940.92084	1706.21545	-3101.98389	1973.02722	1023.53564	-3140.81006	2012.55115	1022.13013 
26	0.250	1548.56995	935.71790	1661.32666	1437.71094	916.78326	1672.65698	1531.91284	1051.53943	1620.06946	1414.50708	1035.88147	1631.15308	1482.07593	1095.72083	1433.68018	1459.69885	1148.99133	1143.86060	1475.47290	956.98169	1357.95886	1475.79675	922.58813	1201.18774	1400.28333	1162.20020	1243.49707	1637.43396	1014.61304	1386.94873	1730.71204	1042.26917	1211.53442	1754.86499	1032.66736	1059.60791	1776.75098	928.67834	1002.33148	1756.82373	792.27625	978.54413	1778.77515	827.41003	935.83417	1797.59631	748.84406	921.78394	1326.33105	1022.92633	1395.24524	1222.68262	1123.19312	1216.42346	1204.55688	1145.32141	1095.35425	1165.45825	1130.68176	976.32672	1175.49561	1059.01013	855.21320	1138.42529	1104.71350	859.14307	1128.89148	1065.01111	785.49768	1569.78271	989.51208	930.89551	1353.04370	973.09985	939.49188	1500.13928	1170.33557	945.76715	1356.03296	1156.30054	942.85760	1616.31201	1067.23193	603.57050	1602.90845	1101.05261	470.74658	1605.18616	1183.21521	298.52383	1554.27991	1241.93701	87.03972	1497.08765	1285.28821	62.66447	1579.31641	1102.39099	38.20556	1288.22327	902.14362	628.46857	1315.83801	842.83179	481.31848	1308.60620	894.24921	311.60165	1354.43359	917.08221	105.45621	1408.32593	961.98212	67.47131	1349.35681	782.01953	62.70941	1461.58630	928.52728	1705.29468	-3101.93408	1973.02368	1023.60632	-3140.64331	2012.48669	1022.11792 
27	0.260	1547.61121	923.28229	1660.63245	1436.77002	904.45917	1671.60144	1531.17773	1039.22021	1619.51880	1413.68652	1023.55725	1630.21692	1481.81018	1083.59595	1432.96814	1459.68042	1137.04333	1143.10083	1475.32581	944.86346	1357.06799	1476.41858	910.60217	1200.26758	1400.61267	1150.11755	1242.39331	1637.18616	1002.34906	1386.64453	1731.44775	1028.56702	1211.82129	1756.84912	1017.57745	1060.16309	1778.16028	911.72192	1006.32751	1757.44934	774.87531	987.43024	1779.83508	808.20874	943.59833	1798.48096	729.18518	932.86920	1326.04431	1010.99573	1393.90063	1223.62170	1112.78345	1215.40295	1205.37781	1135.76086	1094.72900	1165.74438	1122.98486	975.73383	1174.24158	1052.76367	853.63263	1137.78613	1098.86487	858.15912	1127.20642	1060.41101	784.14594	1570.96594	978.35083	930.04041	1353.90649	960.31335	938.48004	1499.99622	1158.65088	945.18872	1356.19580	1143.87158	942.04230	1616.52026	1059.47754	603.13556	1603.27087	1095.70251	471.13248	1604.90906	1180.28662	299.83322	1554.12366	1241.20886	89.22122	1496.46960	1284.44080	65.36366	1579.28357	1102.36804	38.16749	1288.89941	892.33856	626.14447	1316.53516	832.09003	480.00742	1307.29956	872.77893	308.24411	1352.23206	880.66199	99.85619	1405.27698	924.35297	58.80617	1347.90503	743.05267	65.76440	1460.52087	916.09961	1704.30945	-3101.89282	1973.08508	1023.46021	-3140.69092	2012.58972	1022.14606 
28	0.270	1546.55688	910.84833	1659.89270	1435.75671	892.05731	1670.53381	1530.28552	1026.83154	1618.84961	1412.60522	1011.15625	1629.29456	1481.42993	1071.43799	1432.18494	1459.38684	1125.04797	1142.30383	1475.03955	932.73260	1356.20190	1476.84827	898.42706	1199.33887	1400.65649	1137.99390	1241.29822	1636.76880	990.12531	1386.38049	1731.99670	1014.94409	1212.15161	1758.51392	1002.58423	1060.77063	1779.39270	895.17108	1010.33716	1757.89258	758.00555	996.01398	1780.67737	789.62665	951.11621	1798.94067	710.16473	943.43634	1325.59692	998.91833	1392.56262	1224.34521	1102.21130	1214.34351	1206.24280	1126.00708	1094.00220	1165.99731	1115.01392	975.08508	1172.98218	1046.16016	852.12238	1137.36011	1092.76025	857.38611	1125.72327	1055.32434	783.00989	1572.20996	967.14203	929.40417	1354.83459	947.13593	937.46118	1499.65662	1146.74414	944.52246	1356.23718	1131.14417	941.23743	1617.07361	1051.65332	603.07281	1603.71985	1089.80054	471.48584	1604.83130	1177.04297	301.48300	1553.75073	1240.15344	91.42947	1495.94031	1283.40942	68.27888	1579.27026	1102.33154	38.14443	1289.36816	883.25519	623.31384	1316.97241	821.49951	478.71921	1305.97729	852.00092	305.31186	1349.44849	846.04675	95.93806	1402.38806	887.08960	52.25385	1346.48657	705.82239	70.55900	1459.38879	903.60596	1703.38123	-3101.92456	1973.07715	1023.41516	-3140.74609	2012.51489	1022.12659 
29	0.280	1545.42773	898.40125	1659.13550	1434.52234	879.49188	1669.39209	1529.24011	1014.47198	1618.38013	1411.41748	998.60944	1628.32629	1480.90210	1059.34741	1431.42761	1458.99219	1112.93274	1141.43042	1474.63306	920.45465	1355.30652	1477.05151	886.22302	1198.43445	1400.48438	1125.76257	1240.20178	1636.14526	977.89691	1386.16577	1732.26917	1001.42004	1212.50391	1760.00647	987.76111	1061.50403	1780.31885	878.89355	1014.20959	1758.17542	741.69769	1004.14996	1781.10815	771.50171	958.13171	1799.26929	691.84998	953.61121	1325.05444	986.79572	1391.20789	1224.84583	1091.42358	1213.39929	1206.60083	1116.00867	1093.35681	1166.09802	1106.61938	974.52551	1171.94946	1038.93469	850.68695	1137.23450	1085.86963	856.62897	1124.57556	1049.54883	781.96826	1573.15698	955.51013	928.71185	1355.89636	933.68848	936.52753	1499.24976	1134.60620	943.74103	1356.26660	1118.36768	940.45862	1617.95898	1043.78613	603.28339	1604.20361	1083.32361	471.84283	1604.84961	1173.13306	303.17017	1553.51062	1239.06311	94.02190	1495.71326	1282.39661	71.71719	1579.30640	1102.32996	38.11373	1289.25366	874.43945	620.12756	1317.02478	810.92517	477.07928	1304.57715	831.84607	303.28580	1347.22424	812.94330	94.09673	1399.51172	851.57788	47.40590	1345.17371	671.18097	76.79906	1458.10999	890.99310	1702.43823	-3101.85229	1973.13354	1023.28027	-3140.77075	2012.51001	1022.05084 
